<?xml version="1.0" encoding="utf-8"?>
<svg xmlns="http://www.w3.org/2000/svg" viewBox="226.95 0 235.298 254.142" xmlns:bx="https://boxy-svg.com" width="776.275px" height="261.909px" preserveAspectRatio="none"><defs><bx:export><bx:file format="svg" path="Logo Poup+ porquinho Verde.svg" width="776.275" height="261.909"/><bx:file format="svg" href="#object-0" path="Logo Poup+ Horizontal Verde.svg" width="666.933" height="226.03"/></bx:export></defs><g transform="matrix(1, 0, 0, 1, -96.430414, -575.540353)" id="object-0"><path fill-rule="evenodd" clip-rule="evenodd" d="M 116.348 110.219 C 112.54 110.219 109.454 113.306 109.454 117.117 C 109.454 120.927 112.54 124.014 116.348 124.014 C 120.161 124.014 123.251 120.927 123.251 117.117 C 123.251 113.306 120.161 110.219 116.348 110.219 Z M 115.968 55.852 C 124.621 56.36 135.888 62.534 145.413 72.818 L 149.467 77.688 L 154.541 76.407 L 163.668 74.687 L 164.776 77.481 C 165.741 79.489 166.849 81.415 168.084 83.247 L 170.402 86.344 L 169.717 87.324 C 169.529 87.742 169.428 88.207 169.428 88.709 C 169.428 90.538 171.052 92.37 172.982 92.257 L 172.982 92.258 C 181.305 91.753 189.663 91.487 197.969 92.124 C 205.026 92.69 212.012 93.975 218.805 95.961 C 223.205 97.226 227.535 98.714 231.832 100.303 C 233.634 100.971 235.723 99.561 236.197 97.837 C 236.604 96.347 236.02 95.01 234.945 94.156 L 234.319 93.803 L 235.385 93.007 C 237.932 90.902 240.258 88.525 242.305 85.922 L 242.541 85.581 L 243.412 85.969 C 267.564 97.917 284.473 117.115 288.322 139.301 L 288.45 140.242 L 288.602 140.164 C 294.667 136.567 299.632 131.02 302.619 123.822 C 303.178 122.383 303.599 120.893 303.879 119.376 C 304.666 115.487 310.224 115.555 310.969 119.451 C 313.355 131.996 308.861 144.785 298.406 151.764 C 295.717 153.563 292.815 154.845 289.82 155.638 L 288.688 155.875 L 288.322 158.657 C 284.473 180.841 267.564 200.039 243.412 211.989 L 242.414 212.43 L 242.66 214.882 L 242.66 225.567 C 242.66 235.99 234.21 244.441 223.788 244.441 C 213.365 244.441 204.906 235.99 204.906 225.567 L 204.906 223.578 L 196.007 224.573 C 192.521 224.833 188.977 224.966 185.4 224.966 C 181.813 224.966 178.277 224.833 174.791 224.573 L 165.884 223.578 L 165.884 225.567 C 165.884 235.99 157.433 244.441 147.012 244.441 C 136.581 244.441 128.13 235.99 128.13 225.567 L 128.13 214.882 L 128.376 212.43 L 127.386 211.989 C 110.139 203.454 96.58 191.221 88.84 176.842 L 87.037 173.175 L 85.776 173.565 C 84.566 173.813 83.314 173.942 82.037 173.942 C 71.794 173.942 63.487 165.638 63.487 155.396 L 63.487 142.563 C 63.487 132.319 71.794 124.014 82.037 124.014 C 83.314 124.014 84.566 124.145 85.776 124.391 L 87.02 124.777 L 87.086 124.608 C 92.391 113.132 101.333 102.885 112.914 94.605 L 113.269 94.363 L 112.355 93.266 C 102.254 79.705 99.363 65.145 106.197 58.822 C 108.641 56.563 112.033 55.622 115.968 55.852 Z M 205.085 28.927 L 205.085 34.649 C 201.65 34.975 198.9 36.127 196.844 38.105 C 194.78 40.085 193.748 42.602 193.748 45.658 C 193.748 47.484 194.037 49.037 194.621 50.32 C 195.194 51.603 196.025 52.734 197.116 53.711 C 198.198 54.687 199.492 55.546 200.99 56.286 C 202.487 57.026 204.128 57.758 205.896 58.48 C 207.672 59.205 208.908 59.972 209.608 60.787 C 210.319 61.599 210.667 62.719 210.667 64.148 C 210.667 65.432 210.319 66.439 209.608 67.171 C 208.908 67.904 207.943 68.269 206.707 68.269 C 205.034 68.269 203.732 67.732 202.818 66.656 C 201.911 65.58 201.455 64.012 201.455 61.95 L 192.313 61.95 C 192.313 65.693 193.369 68.708 195.476 70.995 C 197.581 73.281 200.601 74.632 204.544 75.046 L 204.544 80.524 L 208.857 80.524 L 208.857 75.074 C 212.233 74.75 214.906 73.611 216.868 71.658 C 218.831 69.706 219.813 67.185 219.813 64.094 C 219.813 62.268 219.499 60.704 218.889 59.404 C 218.272 58.102 217.427 56.963 216.335 55.987 C 215.252 55.011 213.967 54.14 212.477 53.37 C 210.981 52.603 209.4 51.861 207.714 51.148 C 206.031 50.434 204.813 49.684 204.053 48.897 C 203.3 48.11 202.919 47.048 202.919 45.712 C 202.919 44.393 203.249 43.355 203.909 42.608 C 204.569 41.856 205.491 41.483 206.683 41.483 C 208.019 41.483 209.052 41.989 209.778 43 C 210.499 44.011 210.863 45.459 210.863 47.339 L 220.022 47.339 C 220.022 43.904 219.085 41.069 217.188 38.837 C 215.304 36.607 212.706 35.247 209.4 34.758 L 209.4 28.927 L 205.085 28.927 Z M 206.166 18.411 C 227.805 18.411 245.342 35.944 245.342 57.572 C 245.342 71.09 238.49 83.009 228.069 90.048 L 226.487 91.011 L 222.611 89.695 C 218.857 88.56 215.066 87.576 211.209 86.817 C 203.681 85.374 196.025 84.651 188.353 84.657 C 185.789 84.645 183.225 84.692 180.663 84.782 L 178.15 84.905 L 175.942 82.484 C 170.359 75.715 167.001 67.035 167.001 57.572 C 167.001 35.944 184.537 18.411 206.166 18.411 Z" style="stroke-width: 1; fill: rgb(33, 194, 94);"/><path d="M 345.683 106.55 L 345.683 135.792 C 345.683 136.417 346.085 136.819 346.89 136.999 C 349.931 137.356 352.345 137.535 354.134 137.535 C 360.572 137.535 365.536 136.06 369.024 133.109 C 372.6 130.069 374.389 125.865 374.389 120.5 C 374.389 109.857 367.637 104.537 354.134 104.537 C 351.897 104.537 349.439 104.76 346.756 105.208 C 346.04 105.388 345.683 105.834 345.683 106.55 Z M 330.928 186.496 C 328.871 186.496 327.081 185.737 325.562 184.216 C 324.041 182.695 323.282 180.907 323.282 178.85 L 323.282 96.891 C 323.282 94.745 323.996 92.822 325.428 91.123 C 326.858 89.425 328.647 88.486 330.793 88.307 C 338.395 87.591 345.727 87.233 352.792 87.233 C 381.408 87.233 395.717 97.876 395.717 119.159 C 395.717 130.695 392.364 139.459 385.656 145.45 C 379.038 151.352 369.292 154.303 356.414 154.303 C 353.016 154.303 349.841 154.169 346.89 153.9 C 346.085 153.9 345.683 154.257 345.683 154.974 L 345.683 178.85 C 345.683 180.907 344.922 182.695 343.403 184.216 C 341.882 185.737 340.093 186.496 338.037 186.496 L 330.928 186.496 Z M 445.755 135.523 C 443.611 132.216 440.306 130.56 435.831 130.56 C 431.364 130.56 428.009 132.216 425.772 135.523 C 423.627 138.832 422.553 144.197 422.553 151.62 C 422.553 159.043 423.627 164.409 425.772 167.716 C 428.009 171.025 431.364 172.68 435.831 172.68 C 440.306 172.68 443.611 171.025 445.755 167.716 C 447.997 164.409 449.109 159.043 449.109 151.62 C 449.109 144.197 447.997 138.832 445.755 135.523 Z M 461.717 178.314 C 455.548 184.663 446.925 187.837 435.831 187.837 C 424.745 187.837 416.114 184.663 409.944 178.314 C 403.773 171.963 400.688 163.067 400.688 151.62 C 400.688 140.173 403.773 131.276 409.944 124.927 C 416.114 118.576 424.745 115.403 435.831 115.403 C 446.925 115.403 455.548 118.576 461.717 124.927 C 467.886 131.276 470.978 140.173 470.978 151.62 C 470.978 163.067 467.886 171.963 461.717 178.314 Z M 505.708 187.837 C 497.838 187.837 492.119 185.646 488.536 181.265 C 485.05 176.884 483.308 169.372 483.308 158.729 L 483.308 124.39 C 483.308 122.332 484.069 120.545 485.59 119.025 C 487.112 117.504 488.896 116.744 490.949 116.744 L 496.856 116.744 C 498.91 116.744 500.701 117.504 502.223 119.025 C 503.745 120.545 504.498 122.332 504.498 124.39 L 504.498 157.254 C 504.498 162.44 505.168 166.018 506.51 167.985 C 507.942 169.863 510.355 170.802 513.759 170.802 C 516.884 170.802 519.748 169.549 522.341 167.046 C 524.935 164.452 526.236 161.68 526.236 158.729 L 526.236 124.39 C 526.236 122.332 526.988 120.545 528.51 119.025 C 530.032 117.504 531.824 116.744 533.877 116.744 L 540.316 116.744 C 542.378 116.744 544.161 117.504 545.683 119.025 C 547.205 120.545 547.966 122.332 547.966 124.39 L 547.966 178.85 C 547.966 180.907 547.205 182.695 545.683 184.216 C 544.161 185.737 542.378 186.496 540.316 186.496 L 534.818 186.496 C 532.666 186.496 530.834 185.78 529.32 184.35 C 527.888 182.829 527.127 180.997 527.037 178.85 L 527.037 177.777 C 527.037 177.688 526.988 177.643 526.898 177.643 L 526.637 177.911 C 520.82 184.529 513.849 187.837 505.708 187.837 Z M 586.909 143.303 L 586.909 159.937 C 586.909 162.888 588.251 165.615 590.934 168.119 C 593.7 170.533 596.841 171.741 600.327 171.741 C 604.434 171.741 607.698 170.086 610.12 166.778 C 612.533 163.379 613.736 158.327 613.736 151.62 C 613.736 138.206 609.261 131.499 600.327 131.499 C 596.841 131.499 593.7 132.751 590.934 135.255 C 588.251 137.669 586.909 140.352 586.909 143.303 Z M 573.361 216.007 C 571.307 216.007 569.515 215.247 568.002 213.726 C 566.48 212.205 565.719 210.418 565.719 208.361 L 565.719 124.39 C 565.719 122.332 566.48 120.545 568.002 119.025 C 569.515 117.504 571.307 116.744 573.361 116.744 L 578.728 116.744 C 580.879 116.744 582.712 117.504 584.226 119.025 C 585.747 120.455 586.557 122.244 586.647 124.39 L 586.647 125.463 C 586.647 125.552 586.688 125.597 586.778 125.597 L 587.048 125.328 C 592.759 118.71 599.656 115.403 607.698 115.403 C 616.019 115.403 622.638 118.533 627.555 124.792 C 632.57 131.051 635.065 139.995 635.065 151.62 C 635.065 162.888 632.463 171.741 627.285 178.18 C 622.188 184.618 615.667 187.837 607.698 187.837 C 600.278 187.837 593.667 185.109 587.85 179.655 C 587.76 179.566 587.67 179.521 587.58 179.521 C 587.49 179.521 587.449 179.566 587.449 179.655 L 587.449 208.361 C 587.449 210.418 586.688 212.205 585.167 213.726 C 583.645 215.247 581.861 216.007 579.8 216.007 L 573.361 216.007 Z M 658.39 156.181 C 656.345 156.181 654.553 155.421 653.023 153.9 C 651.518 152.379 650.741 150.592 650.741 148.535 L 650.741 146.657 C 650.741 144.6 651.518 142.812 653.023 141.291 C 654.553 139.77 656.345 139.011 658.39 139.011 L 680.251 139.011 C 681.061 139.011 681.462 138.608 681.462 137.803 L 681.462 116.342 C 681.462 114.284 682.182 112.497 683.606 110.976 C 685.136 109.455 686.927 108.696 688.973 108.696 L 692.196 108.696 C 694.258 108.696 696 109.455 697.424 110.976 C 698.946 112.497 699.707 114.284 699.707 116.342 L 699.707 137.803 C 699.707 138.608 700.108 139.011 700.909 139.011 L 722.778 139.011 C 724.84 139.011 726.632 139.77 728.145 141.291 C 729.667 142.812 730.42 144.6 730.42 146.657 L 730.42 148.535 C 730.42 150.592 729.667 152.379 728.145 153.9 C 726.632 155.421 724.84 156.181 722.778 156.181 L 700.909 156.181 C 700.108 156.181 699.707 156.583 699.707 157.388 L 699.707 178.85 C 699.707 180.907 698.946 182.695 697.424 184.216 C 696 185.737 694.258 186.496 692.196 186.496 L 688.973 186.496 C 686.927 186.496 685.136 185.737 683.606 184.216 C 682.182 182.695 681.462 180.907 681.462 178.85 L 681.462 157.388 C 681.462 156.583 681.061 156.181 680.251 156.181 L 658.39 156.181 Z" style="stroke-width: 1; fill: rgb(33, 194, 94);"/></g><path fill-rule="evenodd" clip-rule="evenodd" d="M 620.003 387.244 C 615.349 387.244 611.576 391.017 611.576 395.676 C 611.576 400.332 615.349 404.105 620.003 404.105 C 624.664 404.105 628.44 400.332 628.44 395.676 C 628.44 391.017 624.664 387.244 620.003 387.244 Z M 619.538 320.793 C 630.115 321.413 643.886 328.96 655.528 341.53 L 660.483 347.482 L 666.686 345.917 L 677.841 343.814 L 679.196 347.229 C 680.375 349.683 681.729 352.038 683.239 354.277 L 686.072 358.062 L 685.235 359.26 C 685.005 359.771 684.881 360.339 684.881 360.953 C 684.881 363.189 686.867 365.428 689.225 365.289 L 689.225 365.291 C 699.399 364.673 709.614 364.349 719.767 365.127 C 728.392 365.819 736.931 367.389 745.234 369.817 C 750.612 371.363 755.905 373.182 761.156 375.124 C 763.359 375.941 765.912 374.217 766.492 372.11 C 766.989 370.289 766.275 368.654 764.962 367.611 L 764.196 367.179 L 765.499 366.206 C 768.612 363.633 771.456 360.728 773.958 357.547 L 774.246 357.129 L 775.311 357.604 C 804.831 372.208 825.499 395.673 830.203 422.79 L 830.359 423.941 L 830.545 423.845 C 837.958 419.449 844.027 412.669 847.678 403.871 C 848.361 402.112 848.876 400.291 849.218 398.437 C 850.18 393.683 856.974 393.766 857.884 398.528 C 860.8 413.862 855.308 429.494 842.528 438.024 C 839.242 440.222 835.695 441.79 832.034 442.759 L 830.65 443.048 L 830.203 446.449 C 825.499 473.564 804.831 497.029 775.311 511.635 L 774.091 512.174 L 774.392 515.172 L 774.392 528.232 C 774.392 540.972 764.063 551.301 751.325 551.301 C 738.585 551.301 728.246 540.972 728.246 528.232 L 728.246 525.8 L 717.368 527.017 C 713.108 527.334 708.776 527.497 704.404 527.497 C 700.02 527.497 695.698 527.334 691.437 527.017 L 680.55 525.8 L 680.55 528.232 C 680.55 540.972 670.22 551.301 657.483 551.301 C 644.733 551.301 634.404 540.972 634.404 528.232 L 634.404 515.172 L 634.705 512.174 L 633.495 511.635 C 612.414 501.203 595.841 486.251 586.38 468.676 L 584.177 464.194 L 582.635 464.671 C 581.156 464.974 579.626 465.132 578.065 465.132 C 565.545 465.132 555.392 454.981 555.392 442.463 L 555.392 426.778 C 555.392 414.256 565.545 404.105 578.065 404.105 C 579.626 404.105 581.156 404.265 582.635 404.566 L 584.156 405.038 L 584.237 404.831 C 590.721 390.805 601.65 378.28 615.805 368.16 L 616.239 367.864 L 615.122 366.523 C 602.776 349.948 599.242 332.151 607.595 324.423 C 610.583 321.661 614.729 320.511 619.538 320.793 Z M 728.464 287.883 L 728.464 294.876 C 724.266 295.275 720.905 296.683 718.392 299.101 C 715.869 301.521 714.607 304.597 714.607 308.332 C 714.607 310.564 714.96 312.463 715.674 314.031 C 716.375 315.599 717.39 316.981 718.724 318.175 C 720.046 319.368 721.628 320.418 723.459 321.323 C 725.289 322.227 727.294 323.122 729.456 324.005 C 731.626 324.891 733.137 325.828 733.993 326.824 C 734.862 327.817 735.287 329.186 735.287 330.933 C 735.287 332.502 734.862 333.733 733.993 334.628 C 733.137 335.523 731.958 335.969 730.447 335.969 C 728.402 335.969 726.81 335.313 725.693 333.998 C 724.585 332.683 724.027 330.766 724.027 328.246 L 712.853 328.246 C 712.853 332.821 714.144 336.506 716.719 339.301 C 719.292 342.096 722.984 343.747 727.803 344.253 L 727.803 350.948 L 733.075 350.948 L 733.075 344.287 C 737.201 343.891 740.468 342.499 742.867 340.112 C 745.266 337.726 746.466 334.645 746.466 330.867 C 746.466 328.635 746.082 326.723 745.337 325.134 C 744.583 323.542 743.55 322.151 742.215 320.957 C 740.891 319.764 739.32 318.7 737.499 317.759 C 735.671 316.821 733.738 315.914 731.678 315.043 C 729.621 314.17 728.132 313.253 727.203 312.291 C 726.282 311.33 725.817 310.031 725.817 308.399 C 725.817 306.786 726.22 305.518 727.027 304.604 C 727.834 303.685 728.96 303.229 730.418 303.229 C 732.051 303.229 733.313 303.848 734.201 305.084 C 735.082 306.32 735.526 308.089 735.526 310.387 L 746.721 310.387 C 746.721 306.189 745.576 302.723 743.258 299.996 C 740.955 297.27 737.779 295.607 733.738 295.01 L 733.738 287.883 L 728.464 287.883 Z M 729.786 275.029 C 756.234 275.029 777.669 296.459 777.669 322.895 C 777.669 339.418 769.294 353.986 756.557 362.59 L 754.624 363.766 L 749.886 362.158 C 745.297 360.771 740.664 359.568 735.95 358.64 C 726.748 356.876 717.39 355.993 708.013 356 C 704.879 355.986 701.745 356.043 698.614 356.153 L 695.542 356.303 L 692.843 353.344 C 686.02 345.07 681.915 334.461 681.915 322.895 C 681.915 296.459 703.349 275.029 729.786 275.029 Z" style="stroke-width: 1; fill: rgb(255, 255, 255);"/><path d="M 900.314 382.759 L 900.314 418.501 C 900.314 419.265 900.806 419.757 901.79 419.977 C 905.506 420.413 908.457 420.632 910.644 420.632 C 918.513 420.632 924.58 418.829 928.843 415.222 C 933.214 411.506 935.401 406.368 935.401 399.81 C 935.401 386.802 927.148 380.299 910.644 380.299 C 907.91 380.299 904.905 380.572 901.626 381.119 C 900.751 381.339 900.314 381.884 900.314 382.759 Z M 882.279 480.476 C 879.765 480.476 877.578 479.548 875.721 477.689 C 873.862 475.83 872.934 473.645 872.934 471.13 L 872.934 370.954 C 872.934 368.331 873.807 365.98 875.557 363.904 C 877.305 361.828 879.492 360.68 882.115 360.461 C 891.406 359.586 900.368 359.149 909.004 359.149 C 943.98 359.149 961.47 372.157 961.47 398.171 C 961.47 412.271 957.371 422.983 949.173 430.306 C 941.084 437.52 929.171 441.127 913.431 441.127 C 909.277 441.127 905.397 440.963 901.79 440.635 C 900.806 440.635 900.314 441.071 900.314 441.947 L 900.314 471.13 C 900.314 473.645 899.384 475.83 897.527 477.689 C 895.668 479.548 893.482 480.476 890.969 480.476 L 882.279 480.476 Z M 1022.63 418.173 C 1020.01 414.13 1015.97 412.107 1010.5 412.107 C 1005.04 412.107 1000.94 414.13 998.206 418.173 C 995.583 422.217 994.271 428.775 994.271 437.848 C 994.271 446.921 995.583 453.479 998.206 457.522 C 1000.94 461.566 1005.04 463.589 1010.5 463.589 C 1015.97 463.589 1020.01 461.566 1022.63 457.522 C 1025.37 453.479 1026.73 446.921 1026.73 437.848 C 1026.73 428.775 1025.37 422.217 1022.63 418.173 Z M 1042.14 470.475 C 1034.6 478.236 1024.06 482.115 1010.5 482.115 C 996.95 482.115 986.401 478.236 978.859 470.475 C 971.317 462.713 967.546 451.839 967.546 437.848 C 967.546 423.856 971.317 412.982 978.859 405.221 C 986.401 397.459 996.95 393.58 1010.5 393.58 C 1024.06 393.58 1034.6 397.459 1042.14 405.221 C 1049.68 412.982 1053.46 423.856 1053.46 437.848 C 1053.46 451.839 1049.68 462.713 1042.14 470.475 Z M 1095.91 482.115 C 1086.29 482.115 1079.3 479.437 1074.92 474.082 C 1070.66 468.727 1068.53 459.545 1068.53 446.537 L 1068.53 404.565 C 1068.53 402.05 1069.46 399.865 1071.32 398.007 C 1073.18 396.148 1075.36 395.219 1077.87 395.219 L 1085.09 395.219 C 1087.6 395.219 1089.79 396.148 1091.65 398.007 C 1093.51 399.865 1094.43 402.05 1094.43 404.565 L 1094.43 444.734 C 1094.43 451.073 1095.25 455.446 1096.89 457.85 C 1098.64 460.146 1101.59 461.293 1105.75 461.293 C 1109.57 461.293 1113.07 459.762 1116.24 456.702 C 1119.41 453.532 1121 450.144 1121 446.537 L 1121 404.565 C 1121 402.05 1121.92 399.865 1123.78 398.007 C 1125.64 396.148 1127.83 395.219 1130.34 395.219 L 1138.21 395.219 C 1140.73 395.219 1142.91 396.148 1144.77 398.007 C 1146.63 399.865 1147.56 402.05 1147.56 404.565 L 1147.56 471.13 C 1147.56 473.645 1146.63 475.83 1144.77 477.689 C 1142.91 479.548 1140.73 480.476 1138.21 480.476 L 1131.49 480.476 C 1128.86 480.476 1126.62 479.601 1124.77 477.853 C 1123.02 475.994 1122.09 473.754 1121.98 471.13 L 1121.98 469.819 C 1121.98 469.71 1121.92 469.655 1121.81 469.655 L 1121.49 469.983 C 1114.38 478.072 1105.86 482.115 1095.91 482.115 Z M 1195.16 427.682 L 1195.16 448.013 C 1195.16 451.62 1196.8 454.954 1200.08 458.014 C 1203.46 460.965 1207.3 462.441 1211.56 462.441 C 1216.58 462.441 1220.57 460.418 1223.53 456.375 C 1226.48 452.22 1227.95 446.045 1227.95 437.848 C 1227.95 421.452 1222.48 413.254 1211.56 413.254 C 1207.3 413.254 1203.46 414.785 1200.08 417.845 C 1196.8 420.796 1195.16 424.075 1195.16 427.682 Z M 1178.6 516.546 C 1176.09 516.546 1173.9 515.618 1172.05 513.759 C 1170.19 511.9 1169.26 509.715 1169.26 507.201 L 1169.26 404.565 C 1169.26 402.05 1170.19 399.865 1172.05 398.007 C 1173.9 396.148 1176.09 395.219 1178.6 395.219 L 1185.16 395.219 C 1187.79 395.219 1190.03 396.148 1191.88 398.007 C 1193.74 399.755 1194.73 401.942 1194.84 404.565 L 1194.84 405.876 C 1194.84 405.985 1194.89 406.04 1195 406.04 L 1195.33 405.712 C 1202.31 397.623 1210.74 393.58 1220.57 393.58 C 1230.74 393.58 1238.83 397.406 1244.84 405.057 C 1250.97 412.707 1254.02 423.639 1254.02 437.848 C 1254.02 451.62 1250.84 462.441 1244.51 470.311 C 1238.28 478.181 1230.31 482.115 1220.57 482.115 C 1211.5 482.115 1203.42 478.781 1196.31 472.114 C 1196.2 472.006 1196.09 471.95 1195.98 471.95 C 1195.87 471.95 1195.82 472.006 1195.82 472.114 L 1195.82 507.201 C 1195.82 509.715 1194.89 511.9 1193.03 513.759 C 1191.17 515.618 1188.99 516.546 1186.47 516.546 L 1178.6 516.546 Z M 1282.53 443.422 C 1280.03 443.422 1277.84 442.494 1275.97 440.635 C 1274.13 438.776 1273.18 436.591 1273.18 434.077 L 1273.18 431.781 C 1273.18 429.267 1274.13 427.082 1275.97 425.223 C 1277.84 423.364 1280.03 422.436 1282.53 422.436 L 1309.25 422.436 C 1310.24 422.436 1310.73 421.944 1310.73 420.96 L 1310.73 394.728 C 1310.73 392.213 1311.61 390.028 1313.35 388.169 C 1315.22 386.31 1317.41 385.382 1319.91 385.382 L 1323.85 385.382 C 1326.37 385.382 1328.5 386.31 1330.24 388.169 C 1332.1 390.028 1333.03 392.213 1333.03 394.728 L 1333.03 420.96 C 1333.03 421.944 1333.52 422.436 1334.5 422.436 L 1361.23 422.436 C 1363.75 422.436 1365.94 423.364 1367.79 425.223 C 1369.65 427.082 1370.57 429.267 1370.57 431.781 L 1370.57 434.077 C 1370.57 436.591 1369.65 438.776 1367.79 440.635 C 1365.94 442.494 1363.75 443.422 1361.23 443.422 L 1334.5 443.422 C 1333.52 443.422 1333.03 443.914 1333.03 444.898 L 1333.03 471.13 C 1333.03 473.645 1332.1 475.83 1330.24 477.689 C 1328.5 479.548 1326.37 480.476 1323.85 480.476 L 1319.91 480.476 C 1317.41 480.476 1315.22 479.548 1313.35 477.689 C 1311.61 475.83 1310.73 473.645 1310.73 471.13 L 1310.73 444.898 C 1310.73 443.914 1310.24 443.422 1309.25 443.422 L 1282.53 443.422 Z" style="stroke-width: 1; fill: rgb(255, 255, 255);"/><path fill-rule="evenodd" clip-rule="evenodd" d="M 620.003 698.89 C 615.349 698.89 611.576 702.663 611.576 707.322 C 611.576 711.978 615.349 715.751 620.003 715.751 C 624.664 715.751 628.44 711.978 628.44 707.322 C 628.44 702.663 624.664 698.89 620.003 698.89 Z M 619.538 632.439 C 630.115 633.059 643.886 640.606 655.528 653.176 L 660.483 659.128 L 666.686 657.563 L 677.841 655.46 L 679.196 658.875 C 680.375 661.329 681.729 663.684 683.239 665.923 L 686.072 669.708 L 685.235 670.906 C 685.005 671.417 684.881 671.985 684.881 672.599 C 684.881 674.835 686.867 677.074 689.225 676.935 L 689.225 676.937 C 699.399 676.319 709.614 675.995 719.767 676.773 C 728.392 677.465 736.931 679.035 745.234 681.463 C 750.612 683.009 755.905 684.828 761.156 686.77 C 763.359 687.587 765.912 685.863 766.492 683.756 C 766.989 681.935 766.275 680.3 764.962 679.257 L 764.196 678.825 L 765.499 677.852 C 768.612 675.279 771.456 672.374 773.958 669.193 L 774.246 668.775 L 775.311 669.25 C 804.831 683.854 825.499 707.319 830.203 734.436 L 830.359 735.587 L 830.545 735.491 C 837.958 731.095 844.027 724.315 847.678 715.517 C 848.361 713.758 848.876 711.937 849.218 710.083 C 850.18 705.329 856.974 705.412 857.884 710.174 C 860.8 725.508 855.308 741.14 842.528 749.67 C 839.242 751.868 835.695 753.436 832.034 754.405 L 830.65 754.694 L 830.203 758.095 C 825.499 785.21 804.831 808.675 775.311 823.281 L 774.091 823.82 L 774.392 826.818 L 774.392 839.878 C 774.392 852.618 764.063 862.947 751.325 862.947 C 738.585 862.947 728.246 852.618 728.246 839.878 L 728.246 837.446 L 717.368 838.663 C 713.108 838.98 708.776 839.143 704.404 839.143 C 700.02 839.143 695.698 838.98 691.437 838.663 L 680.55 837.446 L 680.55 839.878 C 680.55 852.618 670.22 862.947 657.483 862.947 C 644.733 862.947 634.404 852.618 634.404 839.878 L 634.404 826.818 L 634.705 823.82 L 633.495 823.281 C 612.414 812.849 595.841 797.897 586.38 780.322 L 584.177 775.84 L 582.635 776.317 C 581.156 776.62 579.626 776.778 578.065 776.778 C 565.545 776.778 555.392 766.627 555.392 754.109 L 555.392 738.424 C 555.392 725.902 565.545 715.751 578.065 715.751 C 579.626 715.751 581.156 715.911 582.635 716.212 L 584.156 716.684 L 584.237 716.477 C 590.721 702.451 601.65 689.926 615.805 679.806 L 616.239 679.51 L 615.122 678.169 C 602.776 661.594 599.242 643.797 607.595 636.069 C 610.583 633.307 614.729 632.157 619.538 632.439 Z M 728.464 599.529 L 728.464 606.522 C 724.266 606.921 720.905 608.329 718.392 610.747 C 715.869 613.167 714.607 616.243 714.607 619.978 C 714.607 622.21 714.96 624.109 715.674 625.677 C 716.375 627.245 717.39 628.627 718.724 629.821 C 720.046 631.014 721.628 632.064 723.459 632.969 C 725.289 633.873 727.294 634.768 729.456 635.651 C 731.626 636.537 733.137 637.474 733.993 638.47 C 734.862 639.463 735.287 640.832 735.287 642.579 C 735.287 644.148 734.862 645.379 733.993 646.274 C 733.137 647.169 731.958 647.615 730.447 647.615 C 728.402 647.615 726.81 646.959 725.693 645.644 C 724.585 644.329 724.027 642.412 724.027 639.892 L 712.853 639.892 C 712.853 644.467 714.144 648.152 716.719 650.947 C 719.292 653.742 722.984 655.393 727.803 655.899 L 727.803 662.594 L 733.075 662.594 L 733.075 655.933 C 737.201 655.537 740.468 654.145 742.867 651.758 C 745.266 649.372 746.466 646.291 746.466 642.513 C 746.466 640.281 746.082 638.369 745.337 636.78 C 744.583 635.188 743.55 633.797 742.215 632.603 C 740.891 631.41 739.32 630.346 737.499 629.405 C 735.671 628.467 733.738 627.56 731.678 626.689 C 729.621 625.816 728.132 624.899 727.203 623.937 C 726.282 622.976 725.817 621.677 725.817 620.045 C 725.817 618.432 726.22 617.164 727.027 616.25 C 727.834 615.331 728.96 614.875 730.418 614.875 C 732.051 614.875 733.313 615.494 734.201 616.73 C 735.082 617.966 735.526 619.735 735.526 622.033 L 746.721 622.033 C 746.721 617.835 745.576 614.369 743.258 611.642 C 740.955 608.916 737.779 607.253 733.738 606.656 L 733.738 599.529 L 728.464 599.529 Z M 729.786 586.675 C 756.234 586.675 777.669 608.105 777.669 634.541 C 777.669 651.064 769.294 665.632 756.557 674.236 L 754.624 675.412 L 749.886 673.804 C 745.297 672.417 740.664 671.214 735.95 670.286 C 726.748 668.522 717.39 667.639 708.013 667.646 C 704.879 667.632 701.745 667.689 698.614 667.799 L 695.542 667.949 L 692.843 664.99 C 686.02 656.716 681.915 646.107 681.915 634.541 C 681.915 608.105 703.349 586.675 729.786 586.675 Z" style="stroke-width: 1;"/><path d="M 900.314 694.405 L 900.314 730.147 C 900.314 730.911 900.806 731.403 901.79 731.623 C 905.506 732.059 908.457 732.278 910.644 732.278 C 918.513 732.278 924.58 730.475 928.843 726.868 C 933.214 723.152 935.401 718.014 935.401 711.456 C 935.401 698.448 927.148 691.945 910.644 691.945 C 907.91 691.945 904.905 692.218 901.626 692.765 C 900.751 692.985 900.314 693.53 900.314 694.405 Z M 882.279 792.122 C 879.765 792.122 877.578 791.194 875.721 789.335 C 873.862 787.476 872.934 785.291 872.934 782.776 L 872.934 682.6 C 872.934 679.977 873.807 677.626 875.557 675.55 C 877.305 673.474 879.492 672.326 882.115 672.107 C 891.406 671.232 900.368 670.795 909.004 670.795 C 943.98 670.795 961.47 683.803 961.47 709.817 C 961.47 723.917 957.371 734.629 949.173 741.952 C 941.084 749.166 929.171 752.773 913.431 752.773 C 909.277 752.773 905.397 752.609 901.79 752.281 C 900.806 752.281 900.314 752.717 900.314 753.593 L 900.314 782.776 C 900.314 785.291 899.384 787.476 897.527 789.335 C 895.668 791.194 893.482 792.122 890.969 792.122 L 882.279 792.122 Z M 1022.63 729.819 C 1020.01 725.776 1015.97 723.753 1010.5 723.753 C 1005.04 723.753 1000.94 725.776 998.206 729.819 C 995.583 733.863 994.271 740.421 994.271 749.494 C 994.271 758.567 995.583 765.125 998.206 769.168 C 1000.94 773.212 1005.04 775.235 1010.5 775.235 C 1015.97 775.235 1020.01 773.212 1022.63 769.168 C 1025.37 765.125 1026.73 758.567 1026.73 749.494 C 1026.73 740.421 1025.37 733.863 1022.63 729.819 Z M 1042.14 782.121 C 1034.6 789.882 1024.06 793.761 1010.5 793.761 C 996.95 793.761 986.401 789.882 978.859 782.121 C 971.317 774.359 967.546 763.485 967.546 749.494 C 967.546 735.502 971.317 724.628 978.859 716.867 C 986.401 709.105 996.95 705.226 1010.5 705.226 C 1024.06 705.226 1034.6 709.105 1042.14 716.867 C 1049.68 724.628 1053.46 735.502 1053.46 749.494 C 1053.46 763.485 1049.68 774.359 1042.14 782.121 Z M 1095.91 793.761 C 1086.29 793.761 1079.3 791.083 1074.92 785.728 C 1070.66 780.373 1068.53 771.191 1068.53 758.183 L 1068.53 716.211 C 1068.53 713.696 1069.46 711.511 1071.32 709.653 C 1073.18 707.794 1075.36 706.865 1077.87 706.865 L 1085.09 706.865 C 1087.6 706.865 1089.79 707.794 1091.65 709.653 C 1093.51 711.511 1094.43 713.696 1094.43 716.211 L 1094.43 756.38 C 1094.43 762.719 1095.25 767.092 1096.89 769.496 C 1098.64 771.792 1101.59 772.939 1105.75 772.939 C 1109.57 772.939 1113.07 771.408 1116.24 768.348 C 1119.41 765.178 1121 761.79 1121 758.183 L 1121 716.211 C 1121 713.696 1121.92 711.511 1123.78 709.653 C 1125.64 707.794 1127.83 706.865 1130.34 706.865 L 1138.21 706.865 C 1140.73 706.865 1142.91 707.794 1144.77 709.653 C 1146.63 711.511 1147.56 713.696 1147.56 716.211 L 1147.56 782.776 C 1147.56 785.291 1146.63 787.476 1144.77 789.335 C 1142.91 791.194 1140.73 792.122 1138.21 792.122 L 1131.49 792.122 C 1128.86 792.122 1126.62 791.247 1124.77 789.499 C 1123.02 787.64 1122.09 785.4 1121.98 782.776 L 1121.98 781.465 C 1121.98 781.356 1121.92 781.301 1121.81 781.301 L 1121.49 781.629 C 1114.38 789.718 1105.86 793.761 1095.91 793.761 Z M 1195.16 739.328 L 1195.16 759.659 C 1195.16 763.266 1196.8 766.6 1200.08 769.66 C 1203.46 772.611 1207.3 774.087 1211.56 774.087 C 1216.58 774.087 1220.57 772.064 1223.53 768.021 C 1226.48 763.866 1227.95 757.691 1227.95 749.494 C 1227.95 733.098 1222.48 724.9 1211.56 724.9 C 1207.3 724.9 1203.46 726.431 1200.08 729.491 C 1196.8 732.442 1195.16 735.721 1195.16 739.328 Z M 1178.6 828.192 C 1176.09 828.192 1173.9 827.264 1172.05 825.405 C 1170.19 823.546 1169.26 821.361 1169.26 818.847 L 1169.26 716.211 C 1169.26 713.696 1170.19 711.511 1172.05 709.653 C 1173.9 707.794 1176.09 706.865 1178.6 706.865 L 1185.16 706.865 C 1187.79 706.865 1190.03 707.794 1191.88 709.653 C 1193.74 711.401 1194.73 713.588 1194.84 716.211 L 1194.84 717.522 C 1194.84 717.631 1194.89 717.686 1195 717.686 L 1195.33 717.358 C 1202.31 709.269 1210.74 705.226 1220.57 705.226 C 1230.74 705.226 1238.83 709.052 1244.84 716.703 C 1250.97 724.353 1254.02 735.285 1254.02 749.494 C 1254.02 763.266 1250.84 774.087 1244.51 781.957 C 1238.28 789.827 1230.31 793.761 1220.57 793.761 C 1211.5 793.761 1203.42 790.427 1196.31 783.76 C 1196.2 783.652 1196.09 783.596 1195.98 783.596 C 1195.87 783.596 1195.82 783.652 1195.82 783.76 L 1195.82 818.847 C 1195.82 821.361 1194.89 823.546 1193.03 825.405 C 1191.17 827.264 1188.99 828.192 1186.47 828.192 L 1178.6 828.192 Z M 1282.53 755.068 C 1280.03 755.068 1277.84 754.14 1275.97 752.281 C 1274.13 750.422 1273.18 748.237 1273.18 745.723 L 1273.18 743.427 C 1273.18 740.913 1274.13 738.728 1275.97 736.869 C 1277.84 735.01 1280.03 734.082 1282.53 734.082 L 1309.25 734.082 C 1310.24 734.082 1310.73 733.59 1310.73 732.606 L 1310.73 706.374 C 1310.73 703.859 1311.61 701.674 1313.35 699.815 C 1315.22 697.956 1317.41 697.028 1319.91 697.028 L 1323.85 697.028 C 1326.37 697.028 1328.5 697.956 1330.24 699.815 C 1332.1 701.674 1333.03 703.859 1333.03 706.374 L 1333.03 732.606 C 1333.03 733.59 1333.52 734.082 1334.5 734.082 L 1361.23 734.082 C 1363.75 734.082 1365.94 735.01 1367.79 736.869 C 1369.65 738.728 1370.57 740.913 1370.57 743.427 L 1370.57 745.723 C 1370.57 748.237 1369.65 750.422 1367.79 752.281 C 1365.94 754.14 1363.75 755.068 1361.23 755.068 L 1334.5 755.068 C 1333.52 755.068 1333.03 755.56 1333.03 756.544 L 1333.03 782.776 C 1333.03 785.291 1332.1 787.476 1330.24 789.335 C 1328.5 791.194 1326.37 792.122 1323.85 792.122 L 1319.91 792.122 C 1317.41 792.122 1315.22 791.194 1313.35 789.335 C 1311.61 787.476 1310.73 785.291 1310.73 782.776 L 1310.73 756.544 C 1310.73 755.56 1310.24 755.068 1309.25 755.068 L 1282.53 755.068 Z" style="stroke-width: 1;"/><path fill-rule="evenodd" clip-rule="evenodd" d="M 1478.22 909.058 C 1473.57 909.058 1469.79 912.831 1469.79 917.49 C 1469.79 922.146 1473.57 925.919 1478.22 925.919 C 1482.88 925.919 1486.66 922.146 1486.66 917.49 C 1486.66 912.831 1482.88 909.058 1478.22 909.058 Z M 1477.76 842.607 C 1488.33 843.227 1502.1 850.774 1513.74 863.344 L 1518.7 869.296 L 1524.9 867.731 L 1536.06 865.628 L 1537.41 869.043 C 1538.59 871.497 1539.95 873.852 1541.46 876.091 L 1544.29 879.876 L 1543.45 881.074 C 1543.22 881.585 1543.1 882.153 1543.1 882.767 C 1543.1 885.003 1545.08 887.242 1547.44 887.103 L 1547.44 887.105 C 1557.62 886.487 1567.83 886.163 1577.98 886.941 C 1586.61 887.633 1595.15 889.203 1603.45 891.631 C 1608.83 893.177 1614.12 894.996 1619.37 896.938 C 1621.58 897.755 1624.13 896.031 1624.71 893.924 C 1625.21 892.103 1624.49 890.468 1623.18 889.425 L 1622.41 888.993 L 1623.72 888.02 C 1626.83 885.447 1629.67 882.542 1632.17 879.361 L 1632.46 878.943 L 1633.53 879.418 C 1663.05 894.022 1683.72 917.487 1688.42 944.604 L 1688.58 945.755 L 1688.76 945.659 C 1696.17 941.263 1702.24 934.483 1705.89 925.685 C 1706.58 923.926 1707.09 922.105 1707.43 920.251 C 1708.4 915.497 1715.19 915.58 1716.1 920.342 C 1719.02 935.676 1713.53 951.308 1700.74 959.838 C 1697.46 962.036 1693.91 963.604 1690.25 964.573 L 1688.87 964.862 L 1688.42 968.263 C 1683.72 995.378 1663.05 1018.84 1633.53 1033.45 L 1632.31 1033.99 L 1632.61 1036.99 L 1632.61 1050.05 C 1632.61 1062.79 1622.28 1073.12 1609.54 1073.12 C 1596.8 1073.12 1586.46 1062.79 1586.46 1050.05 L 1586.46 1047.61 L 1575.59 1048.83 C 1571.33 1049.15 1566.99 1049.31 1562.62 1049.31 C 1558.24 1049.31 1553.91 1049.15 1549.65 1048.83 L 1538.77 1047.61 L 1538.77 1050.05 C 1538.77 1062.79 1528.44 1073.12 1515.7 1073.12 C 1502.95 1073.12 1492.62 1062.79 1492.62 1050.05 L 1492.62 1036.99 L 1492.92 1033.99 L 1491.71 1033.45 C 1470.63 1023.02 1454.06 1008.07 1444.6 990.49 L 1442.39 986.008 L 1440.85 986.485 C 1439.37 986.788 1437.84 986.946 1436.28 986.946 C 1423.76 986.946 1413.61 976.795 1413.61 964.277 L 1413.61 948.592 C 1413.61 936.07 1423.76 925.919 1436.28 925.919 C 1437.84 925.919 1439.37 926.079 1440.85 926.38 L 1442.37 926.852 L 1442.45 926.645 C 1448.94 912.619 1459.87 900.094 1474.02 889.974 L 1474.46 889.678 L 1473.34 888.337 C 1460.99 871.762 1457.46 853.965 1465.81 846.237 C 1468.8 843.475 1472.95 842.325 1477.76 842.607 Z M 1586.68 809.697 L 1586.68 816.69 C 1582.48 817.089 1579.12 818.497 1576.61 820.915 C 1574.09 823.335 1572.82 826.411 1572.82 830.146 C 1572.82 832.378 1573.18 834.277 1573.89 835.845 C 1574.59 837.413 1575.61 838.795 1576.94 839.989 C 1578.26 841.182 1579.85 842.232 1581.68 843.137 C 1583.51 844.041 1585.51 844.936 1587.67 845.819 C 1589.84 846.705 1591.35 847.642 1592.21 848.638 C 1593.08 849.631 1593.5 851 1593.5 852.747 C 1593.5 854.316 1593.08 855.547 1592.21 856.442 C 1591.35 857.337 1590.17 857.783 1588.66 857.783 C 1586.62 857.783 1585.03 857.127 1583.91 855.812 C 1582.8 854.497 1582.24 852.58 1582.24 850.06 L 1571.07 850.06 C 1571.07 854.635 1572.36 858.32 1574.94 861.115 C 1577.51 863.91 1581.2 865.561 1586.02 866.067 L 1586.02 872.762 L 1591.29 872.762 L 1591.29 866.101 C 1595.42 865.705 1598.68 864.313 1601.08 861.926 C 1603.48 859.54 1604.68 856.459 1604.68 852.681 C 1604.68 850.449 1604.3 848.537 1603.55 846.948 C 1602.8 845.356 1601.77 843.965 1600.43 842.771 C 1599.11 841.578 1597.54 840.514 1595.72 839.573 C 1593.89 838.635 1591.95 837.728 1589.89 836.857 C 1587.84 835.984 1586.35 835.067 1585.42 834.105 C 1584.5 833.144 1584.03 831.845 1584.03 830.213 C 1584.03 828.6 1584.44 827.332 1585.24 826.418 C 1586.05 825.499 1587.18 825.043 1588.63 825.043 C 1590.27 825.043 1591.53 825.662 1592.42 826.898 C 1593.3 828.134 1593.74 829.903 1593.74 832.201 L 1604.94 832.201 C 1604.94 828.003 1603.79 824.537 1601.47 821.81 C 1599.17 819.084 1596 817.421 1591.95 816.824 L 1591.95 809.697 L 1586.68 809.697 Z M 1588 796.843 C 1614.45 796.843 1635.89 818.273 1635.89 844.709 C 1635.89 861.232 1627.51 875.8 1614.77 884.404 L 1612.84 885.58 L 1608.1 883.972 C 1603.51 882.585 1598.88 881.382 1594.17 880.454 C 1584.96 878.69 1575.61 877.807 1566.23 877.814 C 1563.1 877.8 1559.96 877.857 1556.83 877.967 L 1553.76 878.117 L 1551.06 875.158 C 1544.24 866.884 1540.13 856.275 1540.13 844.709 C 1540.13 818.273 1561.57 796.843 1588 796.843 Z" style="stroke-width: 1; fill: rgb(33, 194, 94);"/><path fill-rule="evenodd" clip-rule="evenodd" d="M 285.507 117.92 C 282.214 117.92 279.538 120.59 279.538 123.89 C 279.538 127.183 282.214 129.86 285.507 129.86 C 288.807 129.86 291.484 127.183 291.484 123.89 C 291.484 120.59 288.807 117.92 285.507 117.92 Z M 285.182 70.864 C 292.667 71.296 302.418 76.643 310.661 85.544 L 314.173 89.757 L 318.564 88.653 L 326.467 87.166 L 327.423 89.58 C 328.258 91.315 329.221 92.987 330.291 94.573 L 332.295 97.25 L 331.7 98.099 C 331.537 98.461 331.452 98.864 331.452 99.296 C 331.452 100.882 332.854 102.469 334.525 102.37 C 341.734 101.931 348.964 101.704 356.152 102.256 C 362.263 102.745 368.311 103.857 374.189 105.577 C 377.998 106.675 381.745 107.957 385.462 109.338 C 387.027 109.911 388.833 108.693 389.244 107.199 C 389.598 105.91 389.088 104.756 388.16 104.012 L 387.615 103.708 L 388.543 103.021 C 390.745 101.201 392.756 99.14 394.527 96.888 L 394.732 96.591 L 395.49 96.931 C 416.394 107.27 431.032 123.883 434.36 143.088 L 434.473 143.902 L 434.601 143.839 C 439.848 140.723 444.146 135.922 446.731 129.69 C 447.22 128.444 447.581 127.155 447.822 125.845 C 448.509 122.474 453.317 122.538 453.961 125.908 C 456.029 136.764 452.141 147.84 443.084 153.88 C 440.762 155.431 438.248 156.543 435.656 157.23 L 434.679 157.435 L 434.36 159.843 C 431.032 179.048 416.394 195.661 395.49 206.007 L 394.626 206.389 L 394.838 208.507 L 394.838 217.755 C 394.838 226.777 387.523 234.092 378.501 234.092 C 369.479 234.092 362.157 226.777 362.157 217.755 L 362.157 216.034 L 354.46 216.898 C 351.443 217.125 348.37 217.238 345.275 217.238 C 342.173 217.238 339.107 217.125 336.09 216.898 L 328.386 216.034 L 328.386 217.755 C 328.386 226.777 321.071 234.092 312.049 234.092 C 303.02 234.092 295.705 226.777 295.705 217.755 L 295.705 208.507 L 295.917 206.389 L 295.06 206.007 C 280.133 198.614 268.399 188.027 261.699 175.585 L 260.134 172.412 L 259.044 172.745 C 257.996 172.965 256.912 173.071 255.808 173.071 C 246.942 173.071 239.754 165.883 239.754 157.017 L 239.754 145.914 C 239.754 137.048 246.942 129.86 255.808 129.86 C 256.912 129.86 257.996 129.973 259.044 130.186 L 260.12 130.518 L 260.177 130.37 C 264.773 120.441 272.513 111.568 282.533 104.402 L 282.845 104.197 L 282.052 103.241 C 273.306 91.507 270.806 78.902 276.719 73.428 C 278.837 71.473 281.775 70.659 285.182 70.864 Z M 362.313 47.559 L 362.313 52.509 C 359.339 52.792 356.959 53.784 355.182 55.497 C 353.397 57.211 352.498 59.392 352.498 62.033 C 352.498 63.62 352.753 64.958 353.256 66.07 C 353.752 67.182 354.474 68.159 355.416 69.009 C 356.35 69.851 357.476 70.595 358.772 71.239 C 360.068 71.877 361.484 72.507 363.014 73.137 C 364.551 73.76 365.62 74.426 366.229 75.134 C 366.845 75.835 367.143 76.805 367.143 78.038 C 367.143 79.149 366.845 80.02 366.229 80.658 C 365.62 81.288 364.784 81.607 363.715 81.607 C 362.271 81.607 361.145 81.146 360.351 80.212 C 359.565 79.277 359.169 77.924 359.169 76.14 L 351.259 76.14 C 351.259 79.376 352.172 81.989 353.999 83.965 C 355.819 85.948 358.432 87.116 361.846 87.47 L 361.846 92.215 L 365.578 92.215 L 365.578 87.498 C 368.502 87.215 370.811 86.231 372.51 84.538 C 374.21 82.853 375.06 80.672 375.06 77.995 C 375.06 76.416 374.791 75.056 374.259 73.937 C 373.728 72.804 372.999 71.82 372.05 70.977 C 371.115 70.135 370.003 69.377 368.715 68.711 C 367.419 68.046 366.045 67.408 364.586 66.792 C 363.134 66.169 362.079 65.518 361.421 64.838 C 360.769 64.158 360.436 63.237 360.436 62.083 C 360.436 60.943 360.727 60.044 361.293 59.399 C 361.867 58.748 362.667 58.422 363.694 58.422 C 364.855 58.422 365.748 58.861 366.378 59.739 C 367.001 60.61 367.313 61.864 367.313 63.492 L 375.244 63.492 C 375.244 60.518 374.429 58.061 372.787 56.135 C 371.158 54.201 368.913 53.026 366.045 52.601 L 366.045 47.559 L 362.313 47.559 Z M 363.248 38.452 C 381.978 38.452 397.161 53.628 397.161 72.351 C 397.161 84.05 391.227 94.367 382.205 100.458 L 380.838 101.293 L 377.482 100.153 C 374.231 99.169 370.952 98.319 367.617 97.66 C 361.095 96.414 354.474 95.784 347.831 95.791 C 345.615 95.784 343.391 95.826 341.175 95.904 L 339.001 96.01 L 337.089 93.914 C 332.259 88.051 329.349 80.537 329.349 72.351 C 329.349 53.628 344.531 38.452 363.248 38.452 Z" style="fill-rule: evenodd; paint-order: stroke; fill: rgba(0, 0, 0, 0); stroke: rgb(33, 194, 94);"/><path fill-rule="evenodd" clip-rule="evenodd" d="M 1478.22 1549.61 C 1473.57 1549.61 1469.79 1553.38 1469.79 1558.04 C 1469.79 1562.7 1473.57 1566.47 1478.22 1566.47 C 1482.88 1566.47 1486.66 1562.7 1486.66 1558.04 C 1486.66 1553.38 1482.88 1549.61 1478.22 1549.61 Z M 1477.76 1483.16 C 1488.33 1483.78 1502.1 1491.33 1513.74 1503.9 L 1518.7 1509.85 L 1524.9 1508.29 L 1536.06 1506.18 L 1537.41 1509.6 C 1538.59 1512.05 1539.95 1514.41 1541.46 1516.64 L 1544.29 1520.43 L 1543.45 1521.63 C 1543.22 1522.14 1543.1 1522.71 1543.1 1523.32 C 1543.1 1525.56 1545.08 1527.8 1547.44 1527.66 L 1547.44 1527.66 C 1557.62 1527.04 1567.83 1526.72 1577.98 1527.49 C 1586.61 1528.19 1595.15 1529.76 1603.45 1532.18 C 1608.83 1533.73 1614.12 1535.55 1619.37 1537.49 C 1621.58 1538.31 1624.13 1536.59 1624.71 1534.48 C 1625.21 1532.66 1624.49 1531.02 1623.18 1529.98 L 1622.41 1529.55 L 1623.72 1528.57 C 1626.83 1526 1629.67 1523.1 1632.17 1519.91 L 1632.46 1519.5 L 1633.53 1519.97 C 1663.05 1534.58 1683.72 1558.04 1688.42 1585.16 L 1688.58 1586.31 L 1688.76 1586.21 C 1696.17 1581.82 1702.24 1575.04 1705.89 1566.24 C 1706.58 1564.48 1707.09 1562.66 1707.43 1560.81 C 1708.4 1556.05 1715.19 1556.13 1716.1 1560.9 C 1719.02 1576.23 1713.53 1591.86 1700.74 1600.39 C 1697.46 1602.59 1693.91 1604.16 1690.25 1605.13 L 1688.87 1605.42 L 1688.42 1608.82 C 1683.72 1635.93 1663.05 1659.4 1633.53 1674 L 1632.31 1674.54 L 1632.61 1677.54 L 1632.61 1690.6 C 1632.61 1703.34 1622.28 1713.67 1609.54 1713.67 C 1596.8 1713.67 1586.46 1703.34 1586.46 1690.6 L 1586.46 1688.17 L 1575.59 1689.38 C 1571.33 1689.7 1566.99 1689.87 1562.62 1689.87 C 1558.24 1689.87 1553.91 1689.7 1549.65 1689.38 L 1538.77 1688.17 L 1538.77 1690.6 C 1538.77 1703.34 1528.44 1713.67 1515.7 1713.67 C 1502.95 1713.67 1492.62 1703.34 1492.62 1690.6 L 1492.62 1677.54 L 1492.92 1674.54 L 1491.71 1674 C 1470.63 1663.57 1454.06 1648.62 1444.6 1631.04 L 1442.39 1626.56 L 1440.85 1627.04 C 1439.37 1627.34 1437.84 1627.5 1436.28 1627.5 C 1423.76 1627.5 1413.61 1617.35 1413.61 1604.83 L 1413.61 1589.15 C 1413.61 1576.62 1423.76 1566.47 1436.28 1566.47 C 1437.84 1566.47 1439.37 1566.63 1440.85 1566.93 L 1442.37 1567.41 L 1442.45 1567.2 C 1448.94 1553.17 1459.87 1540.65 1474.02 1530.53 L 1474.46 1530.23 L 1473.34 1528.89 C 1460.99 1512.32 1457.46 1494.52 1465.81 1486.79 C 1468.8 1484.03 1472.95 1482.88 1477.76 1483.16 Z M 1586.68 1450.25 L 1586.68 1457.24 C 1582.48 1457.64 1579.12 1459.05 1576.61 1461.47 C 1574.09 1463.89 1572.82 1466.96 1572.82 1470.7 C 1572.82 1472.93 1573.18 1474.83 1573.89 1476.4 C 1574.59 1477.97 1575.61 1479.35 1576.94 1480.54 C 1578.26 1481.74 1579.85 1482.79 1581.68 1483.69 C 1583.51 1484.6 1585.51 1485.49 1587.67 1486.37 C 1589.84 1487.26 1591.35 1488.2 1592.21 1489.19 C 1593.08 1490.18 1593.5 1491.55 1593.5 1493.3 C 1593.5 1494.87 1593.08 1496.1 1592.21 1497 C 1591.35 1497.89 1590.17 1498.34 1588.66 1498.34 C 1586.62 1498.34 1585.03 1497.68 1583.91 1496.37 C 1582.8 1495.05 1582.24 1493.13 1582.24 1490.61 L 1571.07 1490.61 C 1571.07 1495.19 1572.36 1498.87 1574.94 1501.67 C 1577.51 1504.46 1581.2 1506.12 1586.02 1506.62 L 1586.02 1513.32 L 1591.29 1513.32 L 1591.29 1506.65 C 1595.42 1506.26 1598.68 1504.87 1601.08 1502.48 C 1603.48 1500.09 1604.68 1497.01 1604.68 1493.23 C 1604.68 1491 1604.3 1489.09 1603.55 1487.5 C 1602.8 1485.91 1601.77 1484.52 1600.43 1483.33 C 1599.11 1482.13 1597.54 1481.07 1595.72 1480.13 C 1593.89 1479.19 1591.95 1478.28 1589.89 1477.41 C 1587.84 1476.54 1586.35 1475.62 1585.42 1474.66 C 1584.5 1473.7 1584.03 1472.4 1584.03 1470.77 C 1584.03 1469.15 1584.44 1467.89 1585.24 1466.97 C 1586.05 1466.05 1587.18 1465.6 1588.63 1465.6 C 1590.27 1465.6 1591.53 1466.22 1592.42 1467.45 C 1593.3 1468.69 1593.74 1470.46 1593.74 1472.76 L 1604.94 1472.76 C 1604.94 1468.56 1603.79 1465.09 1601.47 1462.36 C 1599.17 1459.64 1596 1457.97 1591.95 1457.38 L 1591.95 1450.25 L 1586.68 1450.25 Z M 1588 1437.4 C 1614.45 1437.4 1635.89 1458.83 1635.89 1485.26 C 1635.89 1501.79 1627.51 1516.35 1614.77 1524.96 L 1612.84 1526.13 L 1608.1 1524.53 C 1603.51 1523.14 1598.88 1521.94 1594.17 1521.01 C 1584.96 1519.24 1575.61 1518.36 1566.23 1518.37 C 1563.1 1518.35 1559.96 1518.41 1556.83 1518.52 L 1553.76 1518.67 L 1551.06 1515.71 C 1544.24 1507.44 1540.13 1496.83 1540.13 1485.26 C 1540.13 1458.83 1561.57 1437.4 1588 1437.4 Z" style="stroke-width: 1;"/><path d="M -229.88 1305.86 L -229.88 1341.6 C -229.88 1342.36 -229.38 1342.86 -228.4 1343.08 C -224.68 1343.51 -221.73 1343.73 -219.54 1343.73 C -211.68 1343.73 -205.61 1341.93 -201.35 1338.32 C -196.97 1334.6 -194.79 1329.47 -194.79 1322.91 C -194.79 1309.9 -203.04 1303.4 -219.54 1303.4 C -222.28 1303.4 -225.28 1303.67 -228.56 1304.22 C -229.44 1304.44 -229.88 1304.98 -229.88 1305.86 Z M -247.91 1403.57 C -250.42 1403.57 -252.61 1402.65 -254.47 1400.79 C -256.33 1398.93 -257.25 1396.74 -257.25 1394.23 L -257.25 1294.05 C -257.25 1291.43 -256.38 1289.08 -254.63 1287 C -252.88 1284.93 -250.7 1283.78 -248.07 1283.56 C -238.78 1282.68 -229.82 1282.25 -221.19 1282.25 C -186.21 1282.25 -168.72 1295.26 -168.72 1321.27 C -168.72 1335.37 -172.82 1346.08 -181.02 1353.4 C -189.1 1360.62 -201.02 1364.22 -216.76 1364.22 C -220.91 1364.22 -224.79 1364.06 -228.4 1363.73 C -229.38 1363.73 -229.88 1364.17 -229.88 1365.05 L -229.88 1394.23 C -229.88 1396.74 -230.81 1398.93 -232.66 1400.79 C -234.52 1402.65 -236.71 1403.57 -239.22 1403.57 L -247.91 1403.57 Z M -107.56 1341.27 C -110.18 1337.23 -114.22 1335.2 -119.69 1335.2 C -125.15 1335.2 -129.25 1337.23 -131.98 1341.27 C -134.61 1345.32 -135.92 1351.87 -135.92 1360.95 C -135.92 1370.02 -134.61 1376.58 -131.98 1380.62 C -129.25 1384.66 -125.15 1386.69 -119.69 1386.69 C -114.22 1386.69 -110.18 1384.66 -107.56 1380.62 C -104.82 1376.58 -103.46 1370.02 -103.46 1360.95 C -103.46 1351.87 -104.82 1345.32 -107.56 1341.27 Z M -88.049 1393.57 C -95.589 1401.33 -106.13 1405.21 -119.69 1405.21 C -133.24 1405.21 -143.79 1401.33 -151.33 1393.57 C -158.87 1385.81 -162.64 1374.94 -162.64 1360.95 C -162.64 1346.95 -158.87 1336.08 -151.33 1328.32 C -143.79 1320.56 -133.24 1316.68 -119.69 1316.68 C -106.13 1316.68 -95.589 1320.56 -88.049 1328.32 C -80.509 1336.08 -76.729 1346.95 -76.729 1360.95 C -76.729 1374.94 -80.509 1385.81 -88.049 1393.57 Z M -34.279 1405.21 C -43.899 1405.21 -50.889 1402.54 -55.269 1397.18 C -59.529 1391.83 -61.659 1382.64 -61.659 1369.63 L -61.659 1327.66 C -61.659 1325.15 -60.729 1322.96 -58.869 1321.11 C -57.009 1319.25 -54.829 1318.32 -52.319 1318.32 L -45.099 1318.32 C -42.589 1318.32 -40.399 1319.25 -38.539 1321.11 C -36.679 1322.96 -35.759 1325.15 -35.759 1327.66 L -35.759 1367.83 C -35.759 1374.17 -34.939 1378.54 -33.299 1380.95 C -31.549 1383.24 -28.599 1384.39 -24.439 1384.39 C -20.619 1384.39 -17.119 1382.86 -13.949 1379.8 C -10.779 1376.63 -9.189 1373.24 -9.189 1369.63 L -9.189 1327.66 C -9.189 1325.15 -8.269 1322.96 -6.409 1321.11 C -4.549 1319.25 -2.359 1318.32 0.151 1318.32 L 8.021 1318.32 C 10.541 1318.32 12.721 1319.25 14.581 1321.11 C 16.441 1322.96 17.371 1325.15 17.371 1327.66 L 17.371 1394.23 C 17.371 1396.74 16.441 1398.93 14.581 1400.79 C 12.721 1402.65 10.541 1403.57 8.021 1403.57 L 1.301 1403.57 C -1.329 1403.57 -3.569 1402.7 -5.419 1400.95 C -7.169 1399.09 -8.099 1396.85 -8.209 1394.23 L -8.209 1392.92 C -8.209 1392.81 -8.269 1392.75 -8.379 1392.75 L -8.699 1393.08 C -15.809 1401.17 -24.329 1405.21 -34.279 1405.21 Z M 64.971 1350.78 L 64.971 1371.11 C 64.971 1374.72 66.611 1378.05 69.891 1381.11 C 73.271 1384.06 77.111 1385.54 81.371 1385.54 C 86.391 1385.54 90.381 1383.52 93.341 1379.47 C 96.291 1375.32 97.761 1369.14 97.761 1360.95 C 97.761 1344.55 92.291 1336.35 81.371 1336.35 C 77.111 1336.35 73.271 1337.88 69.891 1340.94 C 66.611 1343.89 64.971 1347.17 64.971 1350.78 Z M 48.411 1439.64 C 45.901 1439.64 43.711 1438.72 41.861 1436.86 C 40.001 1435 39.071 1432.81 39.071 1430.3 L 39.071 1327.66 C 39.071 1325.15 40.001 1322.96 41.861 1321.11 C 43.711 1319.25 45.901 1318.32 48.411 1318.32 L 54.971 1318.32 C 57.601 1318.32 59.841 1319.25 61.691 1321.11 C 63.551 1322.85 64.541 1325.04 64.651 1327.66 L 64.651 1328.97 C 64.651 1329.08 64.701 1329.14 64.811 1329.14 L 65.141 1328.81 C 72.121 1320.72 80.551 1316.68 90.381 1316.68 C 100.551 1316.68 108.641 1320.5 114.651 1328.15 C 120.781 1335.81 123.831 1346.74 123.831 1360.95 C 123.831 1374.72 120.651 1385.54 114.321 1393.41 C 108.091 1401.28 100.121 1405.21 90.381 1405.21 C 81.311 1405.21 73.231 1401.88 66.121 1395.21 C 66.011 1395.1 65.901 1395.05 65.791 1395.05 C 65.681 1395.05 65.631 1395.1 65.631 1395.21 L 65.631 1430.3 C 65.631 1432.81 64.701 1435 62.841 1436.86 C 60.981 1438.72 58.801 1439.64 56.281 1439.64 L 48.411 1439.64 Z M 152.341 1366.52 C 149.841 1366.52 147.651 1365.59 145.781 1363.73 C 143.941 1361.87 142.991 1359.69 142.991 1357.17 L 142.991 1354.88 C 142.991 1352.37 143.941 1350.18 145.781 1348.32 C 147.651 1346.46 149.841 1345.53 152.341 1345.53 L 179.061 1345.53 C 180.051 1345.53 180.541 1345.04 180.541 1344.06 L 180.541 1317.83 C 180.541 1315.31 181.421 1313.13 183.161 1311.27 C 185.031 1309.41 187.221 1308.48 189.721 1308.48 L 193.661 1308.48 C 196.181 1308.48 198.311 1309.41 200.051 1311.27 C 201.911 1313.13 202.841 1315.31 202.841 1317.83 L 202.841 1344.06 C 202.841 1345.04 203.331 1345.53 204.311 1345.53 L 231.041 1345.53 C 233.561 1345.53 235.751 1346.46 237.601 1348.32 C 239.461 1350.18 240.381 1352.37 240.381 1354.88 L 240.381 1357.17 C 240.381 1359.69 239.461 1361.87 237.601 1363.73 C 235.751 1365.59 233.561 1366.52 231.041 1366.52 L 204.311 1366.52 C 203.331 1366.52 202.841 1367.01 202.841 1368 L 202.841 1394.23 C 202.841 1396.74 201.911 1398.93 200.051 1400.79 C 198.311 1402.65 196.181 1403.57 193.661 1403.57 L 189.721 1403.57 C 187.221 1403.57 185.031 1402.65 183.161 1400.79 C 181.421 1398.93 180.541 1396.74 180.541 1394.23 L 180.541 1368 C 180.541 1367.01 180.051 1366.52 179.061 1366.52 L 152.341 1366.52 Z" style="stroke-width: 1; fill: rgb(33, 194, 94);"/><path d="M -229.88 1634.77 L -229.88 1670.51 C -229.88 1671.27 -229.38 1671.76 -228.4 1671.98 C -224.68 1672.42 -221.73 1672.64 -219.54 1672.64 C -211.68 1672.64 -205.61 1670.84 -201.35 1667.23 C -196.97 1663.51 -194.79 1658.37 -194.79 1651.82 C -194.79 1638.81 -203.04 1632.31 -219.54 1632.31 C -222.28 1632.31 -225.28 1632.58 -228.56 1633.13 C -229.44 1633.35 -229.88 1633.89 -229.88 1634.77 Z M -247.91 1732.48 C -250.42 1732.48 -252.61 1731.55 -254.47 1729.69 C -256.33 1727.84 -257.25 1725.65 -257.25 1723.14 L -257.25 1622.96 C -257.25 1620.34 -256.38 1617.99 -254.63 1615.91 C -252.88 1613.83 -250.7 1612.69 -248.07 1612.47 C -238.78 1611.59 -229.82 1611.15 -221.19 1611.15 C -186.21 1611.15 -168.72 1624.16 -168.72 1650.18 C -168.72 1664.28 -172.82 1674.99 -181.02 1682.31 C -189.1 1689.53 -201.02 1693.13 -216.76 1693.13 C -220.91 1693.13 -224.79 1692.97 -228.4 1692.64 C -229.38 1692.64 -229.88 1693.08 -229.88 1693.95 L -229.88 1723.14 C -229.88 1725.65 -230.81 1727.84 -232.66 1729.69 C -234.52 1731.55 -236.71 1732.48 -239.22 1732.48 L -247.91 1732.48 Z M -107.56 1670.18 C -110.18 1666.14 -114.22 1664.11 -119.69 1664.11 C -125.15 1664.11 -129.25 1666.14 -131.98 1670.18 C -134.61 1674.22 -135.92 1680.78 -135.92 1689.85 C -135.92 1698.93 -134.61 1705.48 -131.98 1709.53 C -129.25 1713.57 -125.15 1715.6 -119.69 1715.6 C -114.22 1715.6 -110.18 1713.57 -107.56 1709.53 C -104.82 1705.48 -103.46 1698.93 -103.46 1689.85 C -103.46 1680.78 -104.82 1674.22 -107.56 1670.18 Z M -88.049 1722.48 C -95.589 1730.24 -106.13 1734.12 -119.69 1734.12 C -133.24 1734.12 -143.79 1730.24 -151.33 1722.48 C -158.87 1714.72 -162.64 1703.85 -162.64 1689.85 C -162.64 1675.86 -158.87 1664.99 -151.33 1657.23 C -143.79 1649.46 -133.24 1645.59 -119.69 1645.59 C -106.13 1645.59 -95.589 1649.46 -88.049 1657.23 C -80.509 1664.99 -76.729 1675.86 -76.729 1689.85 C -76.729 1703.85 -80.509 1714.72 -88.049 1722.48 Z M -34.279 1734.12 C -43.899 1734.12 -50.889 1731.44 -55.269 1726.09 C -59.529 1720.73 -61.659 1711.55 -61.659 1698.54 L -61.659 1656.57 C -61.659 1654.06 -60.729 1651.87 -58.869 1650.01 C -57.009 1648.15 -54.829 1647.22 -52.319 1647.22 L -45.099 1647.22 C -42.589 1647.22 -40.399 1648.15 -38.539 1650.01 C -36.679 1651.87 -35.759 1654.06 -35.759 1656.57 L -35.759 1696.74 C -35.759 1703.08 -34.939 1707.45 -33.299 1709.86 C -31.549 1712.15 -28.599 1713.3 -24.439 1713.3 C -20.619 1713.3 -17.119 1711.77 -13.949 1708.71 C -10.779 1705.54 -9.189 1702.15 -9.189 1698.54 L -9.189 1656.57 C -9.189 1654.06 -8.269 1651.87 -6.409 1650.01 C -4.549 1648.15 -2.359 1647.22 0.151 1647.22 L 8.021 1647.22 C 10.541 1647.22 12.721 1648.15 14.581 1650.01 C 16.441 1651.87 17.371 1654.06 17.371 1656.57 L 17.371 1723.14 C 17.371 1725.65 16.441 1727.84 14.581 1729.69 C 12.721 1731.55 10.541 1732.48 8.021 1732.48 L 1.301 1732.48 C -1.329 1732.48 -3.569 1731.61 -5.419 1729.86 C -7.169 1728 -8.099 1725.76 -8.209 1723.14 L -8.209 1721.83 C -8.209 1721.72 -8.269 1721.66 -8.379 1721.66 L -8.699 1721.99 C -15.809 1730.08 -24.329 1734.12 -34.279 1734.12 Z M 64.971 1679.69 L 64.971 1700.02 C 64.971 1703.63 66.611 1706.96 69.891 1710.02 C 73.271 1712.97 77.111 1714.45 81.371 1714.45 C 86.391 1714.45 90.381 1712.42 93.341 1708.38 C 96.291 1704.23 97.761 1698.05 97.761 1689.85 C 97.761 1673.46 92.291 1665.26 81.371 1665.26 C 77.111 1665.26 73.271 1666.79 69.891 1669.85 C 66.611 1672.8 64.971 1676.08 64.971 1679.69 Z M 48.411 1768.55 C 45.901 1768.55 43.711 1767.62 41.861 1765.77 C 40.001 1763.91 39.071 1761.72 39.071 1759.21 L 39.071 1656.57 C 39.071 1654.06 40.001 1651.87 41.861 1650.01 C 43.711 1648.15 45.901 1647.22 48.411 1647.22 L 54.971 1647.22 C 57.601 1647.22 59.841 1648.15 61.691 1650.01 C 63.551 1651.76 64.541 1653.95 64.651 1656.57 L 64.651 1657.88 C 64.651 1657.99 64.701 1658.05 64.811 1658.05 L 65.141 1657.72 C 72.121 1649.63 80.551 1645.59 90.381 1645.59 C 100.551 1645.59 108.641 1649.41 114.651 1657.06 C 120.781 1664.71 123.831 1675.64 123.831 1689.85 C 123.831 1703.63 120.651 1714.45 114.321 1722.32 C 108.091 1730.19 100.121 1734.12 90.381 1734.12 C 81.311 1734.12 73.231 1730.79 66.121 1724.12 C 66.011 1724.01 65.901 1723.96 65.791 1723.96 C 65.681 1723.96 65.631 1724.01 65.631 1724.12 L 65.631 1759.21 C 65.631 1761.72 64.701 1763.91 62.841 1765.77 C 60.981 1767.62 58.801 1768.55 56.281 1768.55 L 48.411 1768.55 Z M 152.341 1695.43 C 149.841 1695.43 147.651 1694.5 145.781 1692.64 C 143.941 1690.78 142.991 1688.6 142.991 1686.08 L 142.991 1683.79 C 142.991 1681.27 143.941 1679.09 145.781 1677.23 C 147.651 1675.37 149.841 1674.44 152.341 1674.44 L 179.061 1674.44 C 180.051 1674.44 180.541 1673.95 180.541 1672.97 L 180.541 1646.73 C 180.541 1644.22 181.421 1642.03 183.161 1640.17 C 185.031 1638.32 187.221 1637.39 189.721 1637.39 L 193.661 1637.39 C 196.181 1637.39 198.311 1638.32 200.051 1640.17 C 201.911 1642.03 202.841 1644.22 202.841 1646.73 L 202.841 1672.97 C 202.841 1673.95 203.331 1674.44 204.311 1674.44 L 231.041 1674.44 C 233.561 1674.44 235.751 1675.37 237.601 1677.23 C 239.461 1679.09 240.381 1681.27 240.381 1683.79 L 240.381 1686.08 C 240.381 1688.6 239.461 1690.78 237.601 1692.64 C 235.751 1694.5 233.561 1695.43 231.041 1695.43 L 204.311 1695.43 C 203.331 1695.43 202.841 1695.92 202.841 1696.9 L 202.841 1723.14 C 202.841 1725.65 201.911 1727.84 200.051 1729.69 C 198.311 1731.55 196.181 1732.48 193.661 1732.48 L 189.721 1732.48 C 187.221 1732.48 185.031 1731.55 183.161 1729.69 C 181.421 1727.84 180.541 1725.65 180.541 1723.14 L 180.541 1696.9 C 180.541 1695.92 180.051 1695.43 179.061 1695.43 L 152.341 1695.43 Z" style="stroke-width: 1; fill: rgb(255, 255, 255);"/><path d="M -229.88 1946.41 L -229.88 1982.15 C -229.88 1982.92 -229.38 1983.41 -228.4 1983.63 C -224.68 1984.07 -221.73 1984.28 -219.54 1984.28 C -211.68 1984.28 -205.61 1982.48 -201.35 1978.87 C -196.97 1975.16 -194.79 1970.02 -194.79 1963.46 C -194.79 1950.45 -203.04 1943.95 -219.54 1943.95 C -222.28 1943.95 -225.28 1944.22 -228.56 1944.77 C -229.44 1944.99 -229.88 1945.54 -229.88 1946.41 Z M -247.91 2044.13 C -250.42 2044.13 -252.61 2043.2 -254.47 2041.34 C -256.33 2039.48 -257.25 2037.3 -257.25 2034.78 L -257.25 1934.61 C -257.25 1931.98 -256.38 1929.63 -254.63 1927.56 C -252.88 1925.48 -250.7 1924.33 -248.07 1924.11 C -238.78 1923.24 -229.82 1922.8 -221.19 1922.8 C -186.21 1922.8 -168.72 1935.81 -168.72 1961.82 C -168.72 1975.92 -172.82 1986.63 -181.02 1993.96 C -189.1 2001.17 -201.02 2004.78 -216.76 2004.78 C -220.91 2004.78 -224.79 2004.62 -228.4 2004.29 C -229.38 2004.29 -229.88 2004.72 -229.88 2005.6 L -229.88 2034.78 C -229.88 2037.3 -230.81 2039.48 -232.66 2041.34 C -234.52 2043.2 -236.71 2044.13 -239.22 2044.13 L -247.91 2044.13 Z M -107.56 1981.83 C -110.18 1977.78 -114.22 1975.76 -119.69 1975.76 C -125.15 1975.76 -129.25 1977.78 -131.98 1981.83 C -134.61 1985.87 -135.92 1992.43 -135.92 2001.5 C -135.92 2010.57 -134.61 2017.13 -131.98 2021.17 C -129.25 2025.22 -125.15 2027.24 -119.69 2027.24 C -114.22 2027.24 -110.18 2025.22 -107.56 2021.17 C -104.82 2017.13 -103.46 2010.57 -103.46 2001.5 C -103.46 1992.43 -104.82 1985.87 -107.56 1981.83 Z M -88.049 2034.13 C -95.589 2041.89 -106.13 2045.77 -119.69 2045.77 C -133.24 2045.77 -143.79 2041.89 -151.33 2034.13 C -158.87 2026.37 -162.64 2015.49 -162.64 2001.5 C -162.64 1987.51 -158.87 1976.63 -151.33 1968.87 C -143.79 1961.11 -133.24 1957.23 -119.69 1957.23 C -106.13 1957.23 -95.589 1961.11 -88.049 1968.87 C -80.509 1976.63 -76.729 1987.51 -76.729 2001.5 C -76.729 2015.49 -80.509 2026.37 -88.049 2034.13 Z M -34.279 2045.77 C -43.899 2045.77 -50.889 2043.09 -55.269 2037.73 C -59.529 2032.38 -61.659 2023.2 -61.659 2010.19 L -61.659 1968.22 C -61.659 1965.7 -60.729 1963.52 -58.869 1961.66 C -57.009 1959.8 -54.829 1958.87 -52.319 1958.87 L -45.099 1958.87 C -42.589 1958.87 -40.399 1959.8 -38.539 1961.66 C -36.679 1963.52 -35.759 1965.7 -35.759 1968.22 L -35.759 2008.39 C -35.759 2014.72 -34.939 2019.1 -33.299 2021.5 C -31.549 2023.8 -28.599 2024.94 -24.439 2024.94 C -20.619 2024.94 -17.119 2023.41 -13.949 2020.35 C -10.779 2017.18 -9.189 2013.8 -9.189 2010.19 L -9.189 1968.22 C -9.189 1965.7 -8.269 1963.52 -6.409 1961.66 C -4.549 1959.8 -2.359 1958.87 0.151 1958.87 L 8.021 1958.87 C 10.541 1958.87 12.721 1959.8 14.581 1961.66 C 16.441 1963.52 17.371 1965.7 17.371 1968.22 L 17.371 2034.78 C 17.371 2037.3 16.441 2039.48 14.581 2041.34 C 12.721 2043.2 10.541 2044.13 8.021 2044.13 L 1.301 2044.13 C -1.329 2044.13 -3.569 2043.25 -5.419 2041.51 C -7.169 2039.65 -8.099 2037.41 -8.209 2034.78 L -8.209 2033.47 C -8.209 2033.36 -8.269 2033.31 -8.379 2033.31 L -8.699 2033.63 C -15.809 2041.72 -24.329 2045.77 -34.279 2045.77 Z M 64.971 1991.33 L 64.971 2011.66 C 64.971 2015.27 66.611 2018.61 69.891 2021.67 C 73.271 2024.62 77.111 2026.09 81.371 2026.09 C 86.391 2026.09 90.381 2024.07 93.341 2020.03 C 96.291 2015.87 97.761 2009.7 97.761 2001.5 C 97.761 1985.1 92.291 1976.91 81.371 1976.91 C 77.111 1976.91 73.271 1978.44 69.891 1981.5 C 66.611 1984.45 64.971 1987.73 64.971 1991.33 Z M 48.411 2080.2 C 45.901 2080.2 43.711 2079.27 41.861 2077.41 C 40.001 2075.55 39.071 2073.37 39.071 2070.85 L 39.071 1968.22 C 39.071 1965.7 40.001 1963.52 41.861 1961.66 C 43.711 1959.8 45.901 1958.87 48.411 1958.87 L 54.971 1958.87 C 57.601 1958.87 59.841 1959.8 61.691 1961.66 C 63.551 1963.41 64.541 1965.59 64.651 1968.22 L 64.651 1969.53 C 64.651 1969.64 64.701 1969.69 64.811 1969.69 L 65.141 1969.36 C 72.121 1961.28 80.551 1957.23 90.381 1957.23 C 100.551 1957.23 108.641 1961.06 114.651 1968.71 C 120.781 1976.36 123.831 1987.29 123.831 2001.5 C 123.831 2015.27 120.651 2026.09 114.321 2033.96 C 108.091 2041.83 100.121 2045.77 90.381 2045.77 C 81.311 2045.77 73.231 2042.43 66.121 2035.77 C 66.011 2035.66 65.901 2035.6 65.791 2035.6 C 65.681 2035.6 65.631 2035.66 65.631 2035.77 L 65.631 2070.85 C 65.631 2073.37 64.701 2075.55 62.841 2077.41 C 60.981 2079.27 58.801 2080.2 56.281 2080.2 L 48.411 2080.2 Z M 152.341 2007.07 C 149.841 2007.07 147.651 2006.15 145.781 2004.29 C 143.941 2002.43 142.991 2000.24 142.991 1997.73 L 142.991 1995.43 C 142.991 1992.92 143.941 1990.73 145.781 1988.88 C 147.651 1987.02 149.841 1986.09 152.341 1986.09 L 179.061 1986.09 C 180.051 1986.09 180.541 1985.6 180.541 1984.61 L 180.541 1958.38 C 180.541 1955.87 181.421 1953.68 183.161 1951.82 C 185.031 1949.96 187.221 1949.03 189.721 1949.03 L 193.661 1949.03 C 196.181 1949.03 198.311 1949.96 200.051 1951.82 C 201.911 1953.68 202.841 1955.87 202.841 1958.38 L 202.841 1984.61 C 202.841 1985.6 203.331 1986.09 204.311 1986.09 L 231.041 1986.09 C 233.561 1986.09 235.751 1987.02 237.601 1988.88 C 239.461 1990.73 240.381 1992.92 240.381 1995.43 L 240.381 1997.73 C 240.381 2000.24 239.461 2002.43 237.601 2004.29 C 235.751 2006.15 233.561 2007.07 231.041 2007.07 L 204.311 2007.07 C 203.331 2007.07 202.841 2007.57 202.841 2008.55 L 202.841 2034.78 C 202.841 2037.3 201.911 2039.48 200.051 2041.34 C 198.311 2043.2 196.181 2044.13 193.661 2044.13 L 189.721 2044.13 C 187.221 2044.13 185.031 2043.2 183.161 2041.34 C 181.421 2039.48 180.541 2037.3 180.541 2034.78 L 180.541 2008.55 C 180.541 2007.57 180.051 2007.07 179.061 2007.07 L 152.341 2007.07 Z" style="stroke-width: 1;"/></svg>