<?xml version="1.0" encoding="utf-8"?>
<svg xmlns="http://www.w3.org/2000/svg" viewBox="54.671 17.9395 666.933 226.03" width="666.933px" height="226.03px"><g transform="matrix(1, 0, 0, 1, -8.815992486715004, -0.4714990328479871)" id="object-0"><path fill-rule="evenodd" clip-rule="evenodd" d="M 116.348 110.219 C 112.54 110.219 109.454 113.306 109.454 117.117 C 109.454 120.927 112.54 124.014 116.348 124.014 C 120.161 124.014 123.251 120.927 123.251 117.117 C 123.251 113.306 120.161 110.219 116.348 110.219 Z M 115.968 55.852 C 124.621 56.36 135.888 62.534 145.413 72.818 L 149.467 77.688 L 154.541 76.407 L 163.668 74.687 L 164.776 77.481 C 165.741 79.489 166.849 81.415 168.084 83.247 L 170.402 86.344 L 169.717 87.324 C 169.529 87.742 169.428 88.207 169.428 88.709 C 169.428 90.538 171.052 92.37 172.982 92.257 L 172.982 92.258 C 181.305 91.753 189.663 91.487 197.969 92.124 C 205.026 92.69 212.012 93.975 218.805 95.961 C 223.205 97.226 227.535 98.714 231.832 100.303 C 233.634 100.971 235.723 99.561 236.197 97.837 C 236.604 96.347 236.02 95.01 234.945 94.156 L 234.319 93.803 L 235.385 93.007 C 237.932 90.902 240.258 88.525 242.305 85.922 L 242.541 85.581 L 243.412 85.969 C 267.564 97.917 284.473 117.115 288.322 139.301 L 288.45 140.242 L 288.602 140.164 C 294.667 136.567 299.632 131.02 302.619 123.822 C 303.178 122.383 303.599 120.893 303.879 119.376 C 304.666 115.487 310.224 115.555 310.969 119.451 C 313.355 131.996 308.861 144.785 298.406 151.764 C 295.717 153.563 292.815 154.845 289.82 155.638 L 288.688 155.875 L 288.322 158.657 C 284.473 180.841 267.564 200.039 243.412 211.989 L 242.414 212.43 L 242.66 214.882 L 242.66 225.567 C 242.66 235.99 234.21 244.441 223.788 244.441 C 213.365 244.441 204.906 235.99 204.906 225.567 L 204.906 223.578 L 196.007 224.573 C 192.521 224.833 188.977 224.966 185.4 224.966 C 181.813 224.966 178.277 224.833 174.791 224.573 L 165.884 223.578 L 165.884 225.567 C 165.884 235.99 157.433 244.441 147.012 244.441 C 136.581 244.441 128.13 235.99 128.13 225.567 L 128.13 214.882 L 128.376 212.43 L 127.386 211.989 C 110.139 203.454 96.58 191.221 88.84 176.842 L 87.037 173.175 L 85.776 173.565 C 84.566 173.813 83.314 173.942 82.037 173.942 C 71.794 173.942 63.487 165.638 63.487 155.396 L 63.487 142.563 C 63.487 132.319 71.794 124.014 82.037 124.014 C 83.314 124.014 84.566 124.145 85.776 124.391 L 87.02 124.777 L 87.086 124.608 C 92.391 113.132 101.333 102.885 112.914 94.605 L 113.269 94.363 L 112.355 93.266 C 102.254 79.705 99.363 65.145 106.197 58.822 C 108.641 56.563 112.033 55.622 115.968 55.852 Z M 205.085 28.927 L 205.085 34.649 C 201.65 34.975 198.9 36.127 196.844 38.105 C 194.78 40.085 193.748 42.602 193.748 45.658 C 193.748 47.484 194.037 49.037 194.621 50.32 C 195.194 51.603 196.025 52.734 197.116 53.711 C 198.198 54.687 199.492 55.546 200.99 56.286 C 202.487 57.026 204.128 57.758 205.896 58.48 C 207.672 59.205 208.908 59.972 209.608 60.787 C 210.319 61.599 210.667 62.719 210.667 64.148 C 210.667 65.432 210.319 66.439 209.608 67.171 C 208.908 67.904 207.943 68.269 206.707 68.269 C 205.034 68.269 203.732 67.732 202.818 66.656 C 201.911 65.58 201.455 64.012 201.455 61.95 L 192.313 61.95 C 192.313 65.693 193.369 68.708 195.476 70.995 C 197.581 73.281 200.601 74.632 204.544 75.046 L 204.544 80.524 L 208.857 80.524 L 208.857 75.074 C 212.233 74.75 214.906 73.611 216.868 71.658 C 218.831 69.706 219.813 67.185 219.813 64.094 C 219.813 62.268 219.499 60.704 218.889 59.404 C 218.272 58.102 217.427 56.963 216.335 55.987 C 215.252 55.011 213.967 54.14 212.477 53.37 C 210.981 52.603 209.4 51.861 207.714 51.148 C 206.031 50.434 204.813 49.684 204.053 48.897 C 203.3 48.11 202.919 47.048 202.919 45.712 C 202.919 44.393 203.249 43.355 203.909 42.608 C 204.569 41.856 205.491 41.483 206.683 41.483 C 208.019 41.483 209.052 41.989 209.778 43 C 210.499 44.011 210.863 45.459 210.863 47.339 L 220.022 47.339 C 220.022 43.904 219.085 41.069 217.188 38.837 C 215.304 36.607 212.706 35.247 209.4 34.758 L 209.4 28.927 L 205.085 28.927 Z M 206.166 18.411 C 227.805 18.411 245.342 35.944 245.342 57.572 C 245.342 71.09 238.49 83.009 228.069 90.048 L 226.487 91.011 L 222.611 89.695 C 218.857 88.56 215.066 87.576 211.209 86.817 C 203.681 85.374 196.025 84.651 188.353 84.657 C 185.789 84.645 183.225 84.692 180.663 84.782 L 178.15 84.905 L 175.942 82.484 C 170.359 75.715 167.001 67.035 167.001 57.572 C 167.001 35.944 184.537 18.411 206.166 18.411 Z" style="stroke-width: 1; fill: rgb(255, 255, 255);"/><path d="M 345.683 106.55 L 345.683 135.792 C 345.683 136.417 346.085 136.819 346.89 136.999 C 349.931 137.356 352.345 137.535 354.134 137.535 C 360.572 137.535 365.536 136.06 369.024 133.109 C 372.6 130.069 374.389 125.865 374.389 120.5 C 374.389 109.857 367.637 104.537 354.134 104.537 C 351.897 104.537 349.439 104.76 346.756 105.208 C 346.04 105.388 345.683 105.834 345.683 106.55 Z M 330.928 186.496 C 328.871 186.496 327.081 185.737 325.562 184.216 C 324.041 182.695 323.282 180.907 323.282 178.85 L 323.282 96.891 C 323.282 94.745 323.996 92.822 325.428 91.123 C 326.858 89.425 328.647 88.486 330.793 88.307 C 338.395 87.591 345.727 87.233 352.792 87.233 C 381.408 87.233 395.717 97.876 395.717 119.159 C 395.717 130.695 392.364 139.459 385.656 145.45 C 379.038 151.352 369.292 154.303 356.414 154.303 C 353.016 154.303 349.841 154.169 346.89 153.9 C 346.085 153.9 345.683 154.257 345.683 154.974 L 345.683 178.85 C 345.683 180.907 344.922 182.695 343.403 184.216 C 341.882 185.737 340.093 186.496 338.037 186.496 L 330.928 186.496 Z M 445.755 135.523 C 443.611 132.216 440.306 130.56 435.831 130.56 C 431.364 130.56 428.009 132.216 425.772 135.523 C 423.627 138.832 422.553 144.197 422.553 151.62 C 422.553 159.043 423.627 164.409 425.772 167.716 C 428.009 171.025 431.364 172.68 435.831 172.68 C 440.306 172.68 443.611 171.025 445.755 167.716 C 447.997 164.409 449.109 159.043 449.109 151.62 C 449.109 144.197 447.997 138.832 445.755 135.523 Z M 461.717 178.314 C 455.548 184.663 446.925 187.837 435.831 187.837 C 424.745 187.837 416.114 184.663 409.944 178.314 C 403.773 171.963 400.688 163.067 400.688 151.62 C 400.688 140.173 403.773 131.276 409.944 124.927 C 416.114 118.576 424.745 115.403 435.831 115.403 C 446.925 115.403 455.548 118.576 461.717 124.927 C 467.886 131.276 470.978 140.173 470.978 151.62 C 470.978 163.067 467.886 171.963 461.717 178.314 Z M 505.708 187.837 C 497.838 187.837 492.119 185.646 488.536 181.265 C 485.05 176.884 483.308 169.372 483.308 158.729 L 483.308 124.39 C 483.308 122.332 484.069 120.545 485.59 119.025 C 487.112 117.504 488.896 116.744 490.949 116.744 L 496.856 116.744 C 498.91 116.744 500.701 117.504 502.223 119.025 C 503.745 120.545 504.498 122.332 504.498 124.39 L 504.498 157.254 C 504.498 162.44 505.168 166.018 506.51 167.985 C 507.942 169.863 510.355 170.802 513.759 170.802 C 516.884 170.802 519.748 169.549 522.341 167.046 C 524.935 164.452 526.236 161.68 526.236 158.729 L 526.236 124.39 C 526.236 122.332 526.988 120.545 528.51 119.025 C 530.032 117.504 531.824 116.744 533.877 116.744 L 540.316 116.744 C 542.378 116.744 544.161 117.504 545.683 119.025 C 547.205 120.545 547.966 122.332 547.966 124.39 L 547.966 178.85 C 547.966 180.907 547.205 182.695 545.683 184.216 C 544.161 185.737 542.378 186.496 540.316 186.496 L 534.818 186.496 C 532.666 186.496 530.834 185.78 529.32 184.35 C 527.888 182.829 527.127 180.997 527.037 178.85 L 527.037 177.777 C 527.037 177.688 526.988 177.643 526.898 177.643 L 526.637 177.911 C 520.82 184.529 513.849 187.837 505.708 187.837 Z M 586.909 143.303 L 586.909 159.937 C 586.909 162.888 588.251 165.615 590.934 168.119 C 593.7 170.533 596.841 171.741 600.327 171.741 C 604.434 171.741 607.698 170.086 610.12 166.778 C 612.533 163.379 613.736 158.327 613.736 151.62 C 613.736 138.206 609.261 131.499 600.327 131.499 C 596.841 131.499 593.7 132.751 590.934 135.255 C 588.251 137.669 586.909 140.352 586.909 143.303 Z M 573.361 216.007 C 571.307 216.007 569.515 215.247 568.002 213.726 C 566.48 212.205 565.719 210.418 565.719 208.361 L 565.719 124.39 C 565.719 122.332 566.48 120.545 568.002 119.025 C 569.515 117.504 571.307 116.744 573.361 116.744 L 578.728 116.744 C 580.879 116.744 582.712 117.504 584.226 119.025 C 585.747 120.455 586.557 122.244 586.647 124.39 L 586.647 125.463 C 586.647 125.552 586.688 125.597 586.778 125.597 L 587.048 125.328 C 592.759 118.71 599.656 115.403 607.698 115.403 C 616.019 115.403 622.638 118.533 627.555 124.792 C 632.57 131.051 635.065 139.995 635.065 151.62 C 635.065 162.888 632.463 171.741 627.285 178.18 C 622.188 184.618 615.667 187.837 607.698 187.837 C 600.278 187.837 593.667 185.109 587.85 179.655 C 587.76 179.566 587.67 179.521 587.58 179.521 C 587.49 179.521 587.449 179.566 587.449 179.655 L 587.449 208.361 C 587.449 210.418 586.688 212.205 585.167 213.726 C 583.645 215.247 581.861 216.007 579.8 216.007 L 573.361 216.007 Z M 658.39 156.181 C 656.345 156.181 654.553 155.421 653.023 153.9 C 651.518 152.379 650.741 150.592 650.741 148.535 L 650.741 146.657 C 650.741 144.6 651.518 142.812 653.023 141.291 C 654.553 139.77 656.345 139.011 658.39 139.011 L 680.251 139.011 C 681.061 139.011 681.462 138.608 681.462 137.803 L 681.462 116.342 C 681.462 114.284 682.182 112.497 683.606 110.976 C 685.136 109.455 686.927 108.696 688.973 108.696 L 692.196 108.696 C 694.258 108.696 696 109.455 697.424 110.976 C 698.946 112.497 699.707 114.284 699.707 116.342 L 699.707 137.803 C 699.707 138.608 700.108 139.011 700.909 139.011 L 722.778 139.011 C 724.84 139.011 726.632 139.77 728.145 141.291 C 729.667 142.812 730.42 144.6 730.42 146.657 L 730.42 148.535 C 730.42 150.592 729.667 152.379 728.145 153.9 C 726.632 155.421 724.84 156.181 722.778 156.181 L 700.909 156.181 C 700.108 156.181 699.707 156.583 699.707 157.388 L 699.707 178.85 C 699.707 180.907 698.946 182.695 697.424 184.216 C 696 185.737 694.258 186.496 692.196 186.496 L 688.973 186.496 C 686.927 186.496 685.136 185.737 683.606 184.216 C 682.182 182.695 681.462 180.907 681.462 178.85 L 681.462 157.388 C 681.462 156.583 681.061 156.181 680.251 156.181 L 658.39 156.181 Z" style="stroke-width: 1; fill: rgb(255, 255, 255);"/></g></svg>